<svg width="36" height="35" viewBox="0 0 36 35" fill="none" xmlns="http://www.w3.org/2000/svg">
<path d="M27.7047 26.4167C25.578 26.4167 23.854 28.0583 23.854 30.0833C23.854 32.1084 25.578 33.75 27.7047 33.75C29.8313 33.75 31.5553 32.1084 31.5553 30.0833C31.5553 28.0583 29.8313 26.4167 27.7047 26.4167ZM27.7047 26.4167H12.8679C11.9802 26.4167 11.5356 26.4167 11.1701 26.2663C10.8477 26.1336 10.568 25.92 10.3642 25.6477C10.1358 25.3424 10.0439 24.9341 9.8621 24.126L5.12336 3.06852C4.93729 2.24166 4.843 1.82869 4.61195 1.51986C4.40816 1.24747 4.12851 1.03309 3.80611 0.900422C3.44057 0.75 2.99838 0.75 2.11031 0.75H0.75M6.526 6.25H31.3112C32.7009 6.25 33.395 6.25 33.8614 6.52566C34.27 6.76712 34.5691 7.1458 34.6995 7.58651C34.8484 8.08963 34.6571 8.72493 34.2719 9.99634L31.6061 18.7963C31.3758 19.5565 31.2606 19.9359 31.027 20.218C30.8208 20.4669 30.5488 20.6618 30.2404 20.7815C29.8921 20.9167 29.4781 20.9167 28.6521 20.9167H9.85772M10.3767 33.75C8.25 33.75 6.526 32.1084 6.526 30.0833C6.526 28.0583 8.25 26.4167 10.3767 26.4167C12.5033 26.4167 14.2273 28.0583 14.2273 30.0833C14.2273 32.1084 12.5033 33.75 10.3767 33.75Z" stroke="black" stroke-width="1.5" stroke-linecap="round" stroke-linejoin="round"/>
</svg>
