<svg width="44" height="35" viewBox="0 0 44 35" fill="none" xmlns="http://www.w3.org/2000/svg">
<path d="M42.75 33.7498C42.75 29.9183 38.8542 26.6586 33.4167 25.4506M28.75 33.75C28.75 28.8899 22.482 24.95 14.75 24.95C7.01801 24.95 0.75 28.8899 0.75 33.75M28.75 18.35C33.9047 18.35 38.0833 14.4101 38.0833 9.55C38.0833 4.68989 33.9047 0.75 28.75 0.75M14.75 18.35C9.59534 18.35 5.41667 14.4101 5.41667 9.55C5.41667 4.68989 9.59534 0.75 14.75 0.75C19.9047 0.75 24.0833 4.68989 24.0833 9.55C24.0833 14.4101 19.9047 18.35 14.75 18.35Z" stroke="black" stroke-width="1.5" stroke-linecap="round" stroke-linejoin="round"/>
</svg>
